<?xml version="1.0" encoding="utf-8"?>
<!-- Generator: Adobe Illustrator 17.0.0, SVG Export Plug-In . SVG Version: 6.00 Build 0)  -->
<!DOCTYPE svg PUBLIC "-//W3C//DTD SVG 1.1//EN" "http://www.w3.org/Graphics/SVG/1.1/DTD/svg11.dtd">
<svg version="1.1" id="图层_1" xmlns="http://www.w3.org/2000/svg" xmlns:xlink="http://www.w3.org/1999/xlink" x="0px" y="0px"
	 width="139.018px" height="79.312px" viewBox="0 0 139.018 79.312" enable-background="new 0 0 139.018 79.312"
	 xml:space="preserve">
<g>
	<g>
		<rect x="0" y="0" fill="#FFFFFF" width="2.031" height="4.045"/>
		<rect x="14.696" y="1.792" fill="#FFFFFF" width="2.031" height="4.046"/>
		<rect x="53.355" y="1.792" fill="#FFFFFF" width="2.03" height="4.046"/>
		<rect x="77.456" y="1.41" fill="#FFFFFF" width="2.031" height="15.255"/>
		<rect x="6.301" y="5.109" fill="#FFFFFF" width="2.031" height="14.423"/>
		<rect x="7.823" y="5.109" fill="#FFFFFF" width="16.16" height="2.031"/>
		<rect x="47.137" y="5.109" fill="#FFFFFF" width="16.546" height="2.031"/>
		<rect x="66.807" y="5.109" fill="#FFFFFF" width="24.858" height="2.031"/>
		<rect x="66.807" y="10.605" fill="#FFFFFF" width="24.858" height="2.031"/>
		<rect x="97.893" y="26.425" fill="#FFFFFF" width="37.258" height="2.03"/>
		<rect x="66.807" y="16.1" fill="#FFFFFF" width="24.858" height="2.031"/>
		<rect x="66.807" y="22.23" fill="#FFFFFF" width="24.858" height="2.031"/>
		<rect x="66.807" y="29.437" fill="#FFFFFF" width="24.858" height="2.031"/>
		<rect x="66.807" y="37.621" fill="#FFFFFF" width="24.858" height="2.03"/>
		<rect x="47.137" y="11.369" fill="#FFFFFF" width="16.546" height="2.031"/>
		<rect x="47.137" y="17.629" fill="#FFFFFF" width="16.546" height="2.03"/>
		<rect x="47.137" y="23.318" fill="#FFFFFF" width="16.546" height="2.031"/>
		<rect x="47.137" y="44.79" fill="#FFFFFF" width="16.546" height="2.031"/>
		<rect x="7.823" y="17.501" fill="#FFFFFF" width="16.16" height="2.031"/>
		<rect x="5.599" y="23.812" fill="#FFFFFF" width="19.254" height="2.031"/>
		
			<rect x="8.839" y="17.394" transform="matrix(-0.9294 -0.369 0.369 -0.9294 7.4877 63.8985)" fill="#FFFFFF" width="2.03" height="27.679"/>
		<rect x="30.872" y="5.109" fill="#FFFFFF" width="13.308" height="2.031"/>
		<polygon fill="#FFFFFF" points="26.276,9.304 28.143,8.506 43.202,43.643 41.335,44.439 		"/>
		<polygon fill="#FFFFFF" points="41.955,6.185 43.813,7.002 27.388,44.514 25.529,43.697 		"/>
		<rect x="21.339" y="30.352" fill="#FFFFFF" width="2.031" height="14.861"/>
		<rect x="47.137" y="24.334" fill="#FFFFFF" width="2.031" height="21.691"/>
		<rect x="61.65" y="24.334" fill="#FFFFFF" width="2.032" height="21.691"/>
		<rect x="66.657" y="22.229" fill="#FFFFFF" width="2.03" height="24.592"/>
		<rect x="89.634" y="22.229" fill="#FFFFFF" width="2.031" height="24.592"/>
		<rect x="97.893" y="44.79" fill="#FFFFFF" width="37.623" height="2.031"/>
		<rect x="99.733" y="1.792" fill="#FFFFFF" width="33.941" height="2.031"/>
		<g>
			
				<rect x="108.378" y="0.006" transform="matrix(0.7126 -0.7015 0.7015 0.7126 24.0509 79.7686)" fill="#FFFFFF" width="2.031" height="21.042"/>
			
				<rect x="122.996" y="0.007" transform="matrix(-0.7128 -0.7013 0.7013 -0.7128 205.0284 105.0059)" fill="#FFFFFF" width="2.032" height="21.042"/>
		</g>
		<g>
			
				<rect x="104.67" y="14.251" transform="matrix(0.631 -0.7758 0.7758 0.631 22.9154 89.6398)" fill="#FFFFFF" width="2.03" height="12.962"/>
			
				<rect x="126.71" y="14.244" transform="matrix(-0.6313 -0.7755 0.7755 -0.6313 192.2883 132.8625)" fill="#FFFFFF" width="2.031" height="12.961"/>
		</g>
		<g>
			
				<rect x="104.671" y="29.46" transform="matrix(0.631 0.7758 -0.7758 0.631 66.8819 -68.7276)" fill="#FFFFFF" width="2.03" height="12.962"/>
			
				<rect x="126.708" y="29.467" transform="matrix(-0.6313 0.7755 -0.7755 -0.6313 236.2354 -40.4105)" fill="#FFFFFF" width="2.031" height="12.961"/>
		</g>
		<rect x="115.689" y="16.665" fill="#FFFFFF" width="2.03" height="30.156"/>
		<g>
			<rect x="94.391" y="1.792" fill="#FFFFFF" width="2.031" height="45.029"/>
			<rect x="136.986" y="1.792" fill="#FFFFFF" width="2.031" height="45.029"/>
		</g>
		<rect x="10.35" y="29.336" fill="#FFFFFF" width="13.02" height="2.03"/>
		<rect x="1.094" y="43.244" fill="#FFFFFF" width="44.377" height="2.031"/>
		<rect x="7.823" y="11.306" fill="#FFFFFF" width="16.16" height="2.03"/>
		<rect x="23.408" y="5.109" fill="#FFFFFF" width="2.029" height="14.423"/>
		<rect x="0" y="6.905" fill="#FFFFFF" width="2.031" height="72.407"/>
		<polygon fill="#FFFFFF" points="28.037,1.671 26.276,9.32 28.255,9.776 30.115,1.692 30.022,1.671 		"/>
	</g>
	<g>
		<g>
			<rect x="42.497" y="60.515" fill="#FFFFFF" width="1.834" height="18.798"/>
			<rect x="42.497" y="55.075" fill="#FFFFFF" width="1.834" height="3.878"/>
		</g>
		<g>
			<polygon fill="#FFFFFF" points="29.69,79.312 24.575,60.515 26.408,60.515 31.524,79.312 			"/>
			<polygon fill="#FFFFFF" points="29.692,79.312 34.809,60.515 36.643,60.515 31.527,79.312 			"/>
		</g>
		<g>
			<rect x="91.665" y="55.075" fill="#FFFFFF" width="1.834" height="3.878"/>
			<rect x="91.665" y="60.515" fill="#FFFFFF" width="1.834" height="18.798"/>
		</g>
		<path fill="#FFFFFF" d="M101.32,76.692c-2.285-1.748-3.428-3.932-3.428-6.553c0-2.912,1.269-5.29,3.81-7.136
			c2.285-1.648,5.143-2.474,8.57-2.474c3.68,0,6.664,0.873,8.95,2.62c2.156,1.747,3.236,3.932,3.236,6.552
			c0,1.651-0.38,3.108-1.142,4.369c-0.637,1.164-1.59,2.136-2.857,2.911c-2.413,1.554-5.27,2.33-8.569,2.33
			C106.463,79.312,103.605,78.439,101.32,76.692z M117.494,75.672c2.138-1.455,3.209-3.396,3.209-5.823
			c0-1.94-0.871-3.688-2.608-5.242c-1.874-1.748-4.481-2.621-7.822-2.621c-3.346,0-5.954,0.826-7.824,2.476
			c-1.74,1.456-2.608,3.301-2.608,5.533c0,2.427,1.003,4.368,3.009,5.823c2.006,1.361,4.413,2.039,7.223,2.039
			C113.011,77.856,115.488,77.129,117.494,75.672z"/>
		<g>
			<path fill="#FFFFFF" d="M20.996,64.03c-0.511-1.121-1.223-1.987-2.14-2.599c-0.715-0.509-1.528-0.864-2.445-1.07
				c-0.611-0.202-1.223-0.306-1.834-0.306c-0.122,0-0.24,0.007-0.36,0.013v1.673c1.987,0.022,3.484,0.682,4.486,1.983
				c0.917,1.222,1.376,2.853,1.376,4.89v10.698h1.834V68.614C21.913,66.78,21.608,65.252,20.996,64.03z"/>
			<path fill="#FFFFFF" d="M8.213,64.03c0.511-1.121,1.223-1.987,2.14-2.599c0.714-0.509,1.528-0.864,2.445-1.07
				c0.61-0.202,1.222-0.306,1.834-0.306c0.121,0,0.24,0.007,0.359,0.013v1.673c-1.986,0.022-3.483,0.682-4.485,1.983
				c-0.917,1.222-1.377,2.853-1.377,4.89v10.698H7.296V68.614C7.296,66.78,7.601,65.252,8.213,64.03z"/>
		</g>
		<g>
			<path fill="#FFFFFF" d="M138.101,64.03c-0.511-1.121-1.222-1.987-2.14-2.599c-0.714-0.509-1.528-0.864-2.445-1.07
				c-0.61-0.202-1.222-0.306-1.834-0.306c-0.121,0-0.24,0.007-0.359,0.013v1.673c1.986,0.022,3.483,0.682,4.485,1.983
				c0.918,1.222,1.377,2.853,1.377,4.89v10.698h1.833V68.614C139.018,66.78,138.713,65.252,138.101,64.03z"/>
			<path fill="#FFFFFF" d="M125.317,64.03c0.511-1.121,1.223-1.987,2.14-2.599c0.714-0.509,1.528-0.864,2.445-1.07
				c0.611-0.202,1.223-0.306,1.835-0.306c0.121,0,0.239,0.007,0.359,0.013v1.673c-1.987,0.022-3.484,0.682-4.486,1.983
				c-0.917,1.222-1.376,2.853-1.376,4.89v10.698H124.4V68.614C124.4,66.78,124.706,65.252,125.317,64.03z"/>
		</g>
		<g>
			<path fill="#FFFFFF" d="M61.059,77.299c-1.891-1.343-2.836-3.021-2.836-5.034c0-2.238,1.049-4.064,3.152-5.481
				c1.891-1.268,4.254-1.902,7.092-1.902c3.045,0,5.515,0.671,7.406,2.013c1.785,1.344,2.679,3.022,2.679,5.035
				c0,1.27-0.315,2.388-0.946,3.356c-0.526,0.895-1.314,1.641-2.363,2.237c-1.997,1.194-4.36,1.79-7.091,1.79
				C65.314,79.312,62.951,78.642,61.059,77.299z M74.153,76.302c1.684-1.065,2.528-2.483,2.528-4.259
				c0-1.419-0.688-2.696-2.054-3.832c-1.477-1.278-3.531-1.917-6.161-1.917c-2.636,0-4.688,0.604-6.161,1.811
				c-1.371,1.064-2.054,2.414-2.054,4.045c0,1.775,0.789,3.193,2.368,4.258c1.58,0.996,3.477,1.491,5.688,1.491
				C70.623,77.898,72.573,77.366,74.153,76.302z"/>
			<path fill="#FFFFFF" d="M78.567,74.385V67.66c0-0.917-0.052-1.781-0.153-2.598c-0.204-0.917-0.51-1.782-0.916-2.599
				c-0.511-0.814-1.223-1.476-2.14-1.986c-1.02-0.509-2.293-0.765-3.821-0.765c-1.019,0-1.986,0.153-2.903,0.459
				c-1.223,0.306-2.293,0.764-3.209,1.375l0.611,1.375c1.425-1.017,3.209-1.528,5.349-1.528c1.223,0,2.19,0.206,2.903,0.611
				c0.712,0.307,1.272,0.817,1.682,1.529c0.306,0.611,0.508,1.223,0.611,1.833c0.101,0.512,0.153,1.021,0.153,1.529v0.458v1.529
				v3.903l0.064,1.964l0.05,1.015l0.037,0.301l0.307,2.903h1.834C78.72,77.646,78.567,76.118,78.567,74.385z"/>
		</g>
		<path fill="#FFFFFF" d="M85.656,77.562c-1.391-0.382-2.087-1.662-2.087-3.851V61.638h2.08V60.11h-2.08v-4.126l-1.834,0.611v3.515
			h-2.14v1.528h2.14v11.768c0,2.14,0.406,3.669,1.223,4.585c0.662,0.745,1.564,1.184,2.698,1.322V77.562z"/>
		<path fill="#FFFFFF" d="M55.41,77.562c-1.391-0.382-2.087-1.662-2.087-3.851V61.638h2.081V60.11h-2.081v-4.126l-1.834,0.611v3.515
			h-2.14v1.528h2.14v11.768c0,2.14,0.406,3.669,1.223,4.585c0.661,0.745,1.564,1.184,2.698,1.322
			C55.41,79.313,55.41,77.562,55.41,77.562z"/>
	</g>
</g>
</svg>
